# xmcd CD database file
#
# Track frame offsets:
#	150
#	15425
#	31177
#	46875
#	66867
#	81295
#	98782
#	112495
#	132425
#	149415
#	172432
#
# Disc length: 2496 seconds
#
# Revision: 20
# Processed by: cddbd v1.5.2PL0 Copyright (c) Steve Scherf et al.
# Submitted via: CDex 1.78
#
DISCID=9b09bd0b,9f09be0b
DTITLE=Tom Waits - The Heart Of Saturday Night
DYEAR=1974
DGENRE=Folk-Rock
TTITLE0=New Coat Of Paint
TTITLE1=San Diego Serenade
TTITLE2=Semi Suite
TTITLE3=Shiver Me Timbers
TTITLE4=Diamonds On My Windshield
TTITLE5=(Looking For) The Heart Of Saturday Night
TTITLE6=Fumblin' With The Blues
TTITLE7=Please Call Me, Baby
TTITLE8=Depot, Depot
TTITLE9=Drunk On The Moon
TTITLE10=The Ghosts Of Saturday Night (After Hours At Napoleone's Pizza House)
EXTD=YEAR: 1974
EXTT0=
EXTT1=
EXTT2=
EXTT3=
EXTT4=
EXTT5=
EXTT6=
EXTT7=
EXTT8=
EXTT9=
EXTT10=
PLAYORDER=
